<svg width="416" height="86" viewBox="0 0 416 86" fill="none" xmlns="http://www.w3.org/2000/svg">
<path d="M74.8964 9.22663C68.6689 4.37657 61.398 1.50493 53.9392 0.607542C41.4301 -0.899234 28.3825 3.14945 18.7825 12.7494C6.92867 24.6033 3.54363 41.7204 8.62326 56.5836L17.1297 46.0821C16.1822 36.8703 19.2375 27.3205 26.2955 20.2624C31.6548 14.9031 38.4457 11.852 45.4412 11.1091C49.6902 10.6583 54.0102 11.0548 58.1298 12.3111L0 84.123L74.8964 9.22663Z" fill="#3DFF6B"/>
<path d="M97.6691 1.47988L22.7728 76.3762C29.0002 81.2263 36.2711 84.098 43.7299 84.9953C56.239 86.5021 69.2866 82.4534 78.8866 72.8535C90.7405 60.9996 94.1255 43.8825 89.0459 29.0192L80.5395 39.5208C81.4869 48.7325 78.4316 58.2824 71.3736 65.3405C66.0143 70.6997 59.2234 73.7509 52.2279 74.4938C47.9789 74.9446 43.6589 74.5481 39.5393 73.2917L97.6691 1.47988Z" fill="#3DFF6B"/>
<path d="M117.639 17.7515H153.059V24.4015H125.339V38.6115H149.629V45.2615H125.339V61.1515H153.759V67.8015H117.639V17.7515ZM174.24 68.8515C170.74 68.8515 167.66 68.0582 165 66.4715C162.34 64.8848 160.287 62.6682 158.84 59.8215C157.394 56.9282 156.67 53.6382 156.67 49.9515C156.67 46.2648 157.394 42.9982 158.84 40.1515C160.287 37.2582 162.317 35.0182 164.93 33.4315C167.59 31.8448 170.67 31.0515 174.17 31.0515C177.157 31.0515 179.817 31.6582 182.15 32.8715C184.484 34.0382 186.35 35.6948 187.75 37.8415C189.15 39.9415 189.99 42.3448 190.27 45.0515H183.2C182.967 42.8115 182.15 40.8748 180.75 39.2415C179.35 37.5615 177.18 36.7215 174.24 36.7215C170.694 36.7215 168.057 38.0048 166.33 40.5715C164.65 43.0915 163.81 46.2182 163.81 49.9515C163.81 53.6848 164.65 56.8115 166.33 59.3315C168.057 61.8515 170.694 63.1115 174.24 63.1115C177.227 63.1115 179.42 62.2948 180.82 60.6615C182.22 59.0282 183.014 56.9982 183.2 54.5715H190.27C190.13 57.2782 189.36 59.7282 187.96 61.9215C186.56 64.0682 184.67 65.7715 182.29 67.0315C179.91 68.2448 177.227 68.8515 174.24 68.8515ZM211.708 68.8515C208.068 68.8515 204.894 68.0582 202.188 66.4715C199.481 64.8848 197.404 62.6682 195.958 59.8215C194.558 56.9748 193.858 53.6848 193.858 49.9515C193.858 46.2182 194.581 42.9282 196.028 40.0815C197.474 37.2348 199.528 35.0182 202.188 33.4315C204.894 31.7982 208.091 30.9815 211.778 30.9815C215.418 30.9815 218.568 31.7748 221.228 33.3615C223.934 34.9482 225.988 37.1882 227.388 40.0815C228.834 42.9282 229.558 46.1948 229.558 49.8815C229.558 53.6148 228.834 56.9282 227.388 59.8215C225.941 62.6682 223.864 64.8848 221.158 66.4715C218.498 68.0582 215.348 68.8515 211.708 68.8515ZM200.998 49.9515C200.998 53.8715 201.908 57.0682 203.728 59.5415C205.548 61.9682 208.231 63.1815 211.778 63.1815C215.278 63.1815 217.914 61.9682 219.688 59.5415C221.508 57.0682 222.418 53.8715 222.418 49.9515C222.418 46.0315 221.508 42.8582 219.688 40.4315C217.914 37.9582 215.278 36.7215 211.778 36.7215C208.231 36.7215 205.548 37.9348 203.728 40.3615C201.908 42.7882 200.998 45.9848 200.998 49.9515ZM246.473 68.2215C243.299 68.2215 240.919 67.4515 239.333 65.9115C237.793 64.3715 237.023 61.6415 237.023 57.7215V37.7715H231.843V32.1015H237.023V20.6215H243.883V32.1015H250.743V37.7715H243.883V57.9315C243.883 59.7515 244.163 60.9882 244.723 61.6415C245.329 62.2482 246.379 62.5515 247.873 62.5515C248.759 62.5515 249.739 62.4582 250.813 62.2715V67.8015C249.413 68.0815 247.966 68.2215 246.473 68.2215ZM263.311 67.8015H256.451V32.1015H263.311V38.8915H263.451C265.597 33.8048 268.794 31.2615 273.041 31.2615C274.207 31.2615 275.304 31.3315 276.331 31.4715V38.0515C275.491 37.9115 274.721 37.8415 274.021 37.8415C270.894 37.8415 268.327 38.9148 266.321 41.0615C264.314 43.2082 263.311 45.9615 263.311 49.3215V67.8015ZM289.426 68.7815C285.88 68.7815 283.033 67.8482 280.886 65.9815C278.786 64.1148 277.736 61.6415 277.736 58.5615C277.736 55.9948 278.32 53.9415 279.486 52.4015C280.7 50.8148 282.356 49.6015 284.456 48.7615C286.603 47.8748 289.333 47.1282 292.646 46.5215C294.933 46.1015 296.66 45.7282 297.826 45.4015C298.993 45.0282 299.926 44.5382 300.626 43.9315C301.326 43.2782 301.676 42.3915 301.676 41.2715C301.676 38.0982 299.413 36.5115 294.886 36.5115C291.853 36.5115 289.73 37.0248 288.516 38.0515C287.303 39.0782 286.603 40.8048 286.416 43.2315H279.416C279.603 39.5448 280.98 36.5815 283.546 34.3415C286.113 32.1015 289.986 30.9815 295.166 30.9815C299.18 30.9815 302.376 31.9615 304.756 33.9215C307.183 35.8348 308.396 38.9615 308.396 43.3015V59.6815C308.396 61.0348 308.513 62.0382 308.746 62.6915C308.98 63.2982 309.423 63.6015 310.076 63.6015L310.916 63.5315V67.7315C309.75 68.0115 308.583 68.1515 307.416 68.1515C305.643 68.1515 304.29 67.7548 303.356 66.9615C302.47 66.1215 301.933 64.7215 301.746 62.7615H301.606C300.44 64.6748 298.83 66.1682 296.776 67.2415C294.723 68.2682 292.273 68.7815 289.426 68.7815ZM284.876 58.0715C284.876 61.5248 286.906 63.2515 290.966 63.2515C294.186 63.2515 296.776 62.4582 298.736 60.8715C300.696 59.2382 301.676 56.9048 301.676 53.8715V48.7615C301.163 49.2282 300.253 49.6715 298.946 50.0915C297.686 50.4648 295.983 50.8848 293.836 51.3515C290.616 52.0048 288.306 52.8448 286.906 53.8715C285.553 54.8515 284.876 56.2515 284.876 58.0715ZM330.612 68.7815C327.579 68.7815 324.849 68.0348 322.422 66.5415C319.995 65.0015 318.082 62.8082 316.682 59.9615C315.282 57.1148 314.582 53.7782 314.582 49.9515C314.582 46.1248 315.282 42.7882 316.682 39.9415C318.082 37.0948 319.995 34.9015 322.422 33.3615C324.849 31.8215 327.579 31.0515 330.612 31.0515C333.225 31.0515 335.419 31.5648 337.192 32.5915C339.012 33.5715 340.482 34.8548 341.602 36.4415H341.742V17.7515H348.602V67.8015H341.742V63.6015H341.602C340.435 65.0948 338.942 66.3315 337.122 67.3115C335.349 68.2915 333.179 68.7815 330.612 68.7815ZM321.722 49.9515C321.722 53.6848 322.585 56.8115 324.312 59.3315C326.039 61.8515 328.512 63.1115 331.732 63.1115C334.812 63.1115 337.239 61.9448 339.012 59.6115C340.785 57.2315 341.672 54.0115 341.672 49.9515C341.672 45.8915 340.785 42.6948 339.012 40.3615C337.239 37.9815 334.812 36.7915 331.732 36.7915C328.512 36.7915 326.039 38.0515 324.312 40.5715C322.585 43.0915 321.722 46.2182 321.722 49.9515ZM372.144 68.8515C368.457 68.8515 365.284 68.0348 362.624 66.4015C359.964 64.7682 357.934 62.5282 356.534 59.6815C355.181 56.8348 354.504 53.5682 354.504 49.8815C354.504 46.1482 355.204 42.8582 356.604 40.0115C358.051 37.1648 360.104 34.9482 362.764 33.3615C365.424 31.7748 368.551 30.9815 372.144 30.9815C377.511 30.9815 381.664 32.6148 384.604 35.8815C387.591 39.1482 389.084 43.5815 389.084 49.1815C389.084 50.5348 389.061 51.3982 389.014 51.7715H361.574C361.667 54.9915 362.624 57.7215 364.444 59.9615C366.311 62.1548 368.924 63.2515 372.284 63.2515C375.084 63.2515 377.231 62.5748 378.724 61.2215C380.264 59.8682 381.244 58.3982 381.664 56.8115H388.664C387.637 60.4515 385.747 63.3682 382.994 65.5615C380.241 67.7548 376.624 68.8515 372.144 68.8515ZM381.944 46.3815C381.944 43.5348 381.011 41.2015 379.144 39.3815C377.324 37.5148 374.921 36.5815 371.934 36.5815C369.041 36.5815 366.637 37.4915 364.724 39.3115C362.811 41.0848 361.761 43.4415 361.574 46.3815H381.944ZM401.739 67.8015H394.879V32.1015H401.739V38.8915H401.879C404.025 33.8048 407.222 31.2615 411.469 31.2615C412.635 31.2615 413.732 31.3315 414.759 31.4715V38.0515C413.919 37.9115 413.149 37.8415 412.449 37.8415C409.322 37.8415 406.755 38.9148 404.749 41.0615C402.742 43.2082 401.739 45.9615 401.739 49.3215V67.8015Z" fill="white"/>
</svg>
