<svg width="416" height="86" viewBox="0 0 416 86" fill="none" xmlns="http://www.w3.org/2000/svg">
<path d="M74.8964 9.06428C68.6689 4.21421 61.398 1.34258 53.9392 0.445188C41.4301 -1.06159 28.3825 2.98709 18.7825 12.587C6.92867 24.4409 3.54363 41.558 8.62326 56.4213L17.1297 45.9198C16.1822 36.708 19.2375 27.1581 26.2955 20.1001C31.6548 14.7408 38.4457 11.6897 45.4412 10.9467C49.6902 10.4959 54.0102 10.8924 58.1298 12.1488L0 83.9606L74.8964 9.06428Z" fill="black"/>
<path d="M97.6691 1.31753L22.7728 76.2139C29.0002 81.064 36.2711 83.9356 43.7299 84.833C56.239 86.3398 69.2866 82.2911 78.8866 72.6911C90.7405 60.8373 94.1255 43.7201 89.0459 28.8569L80.5395 39.3584C81.4869 48.5702 78.4316 58.1201 71.3736 65.1781C66.0143 70.5374 59.2234 73.5885 52.2279 74.3315C47.9789 74.7822 43.6589 74.3857 39.5393 73.1294L97.6691 1.31753Z" fill="black"/>
<path d="M117.639 17.5892H153.059V24.2392H125.339V38.4492H149.629V45.0992H125.339V60.9892H153.759V67.6392H117.639V17.5892ZM174.24 68.6892C170.74 68.6892 167.66 67.8958 165 66.3092C162.34 64.7225 160.287 62.5058 158.84 59.6592C157.394 56.7658 156.67 53.4758 156.67 49.7892C156.67 46.1025 157.394 42.8358 158.84 39.9892C160.287 37.0958 162.317 34.8558 164.93 33.2692C167.59 31.6825 170.67 30.8892 174.17 30.8892C177.157 30.8892 179.817 31.4958 182.15 32.7092C184.484 33.8758 186.35 35.5325 187.75 37.6792C189.15 39.7792 189.99 42.1825 190.27 44.8892H183.2C182.967 42.6492 182.15 40.7125 180.75 39.0792C179.35 37.3992 177.18 36.5592 174.24 36.5592C170.694 36.5592 168.057 37.8425 166.33 40.4092C164.65 42.9292 163.81 46.0558 163.81 49.7892C163.81 53.5225 164.65 56.6492 166.33 59.1692C168.057 61.6892 170.694 62.9492 174.24 62.9492C177.227 62.9492 179.42 62.1325 180.82 60.4992C182.22 58.8658 183.014 56.8358 183.2 54.4092H190.27C190.13 57.1158 189.36 59.5658 187.96 61.7592C186.56 63.9058 184.67 65.6092 182.29 66.8692C179.91 68.0825 177.227 68.6892 174.24 68.6892ZM211.708 68.6892C208.068 68.6892 204.894 67.8958 202.188 66.3092C199.481 64.7225 197.404 62.5058 195.958 59.6592C194.558 56.8125 193.858 53.5225 193.858 49.7892C193.858 46.0558 194.581 42.7658 196.028 39.9192C197.474 37.0725 199.528 34.8558 202.188 33.2692C204.894 31.6358 208.091 30.8192 211.778 30.8192C215.418 30.8192 218.568 31.6125 221.228 33.1992C223.934 34.7858 225.988 37.0258 227.388 39.9192C228.834 42.7658 229.558 46.0325 229.558 49.7192C229.558 53.4525 228.834 56.7658 227.388 59.6592C225.941 62.5058 223.864 64.7225 221.158 66.3092C218.498 67.8958 215.348 68.6892 211.708 68.6892ZM200.998 49.7892C200.998 53.7092 201.908 56.9058 203.728 59.3792C205.548 61.8058 208.231 63.0192 211.778 63.0192C215.278 63.0192 217.914 61.8058 219.688 59.3792C221.508 56.9058 222.418 53.7092 222.418 49.7892C222.418 45.8692 221.508 42.6958 219.688 40.2692C217.914 37.7958 215.278 36.5592 211.778 36.5592C208.231 36.5592 205.548 37.7725 203.728 40.1992C201.908 42.6258 200.998 45.8225 200.998 49.7892ZM246.473 68.0592C243.299 68.0592 240.919 67.2892 239.333 65.7492C237.793 64.2092 237.023 61.4792 237.023 57.5592V37.6092H231.843V31.9392H237.023V20.4592H243.883V31.9392H250.743V37.6092H243.883V57.7692C243.883 59.5892 244.163 60.8258 244.723 61.4792C245.329 62.0858 246.379 62.3892 247.873 62.3892C248.759 62.3892 249.739 62.2958 250.813 62.1092V67.6392C249.413 67.9192 247.966 68.0592 246.473 68.0592ZM263.311 67.6392H256.451V31.9392H263.311V38.7292H263.451C265.597 33.6425 268.794 31.0992 273.041 31.0992C274.207 31.0992 275.304 31.1692 276.331 31.3092V37.8892C275.491 37.7492 274.721 37.6792 274.021 37.6792C270.894 37.6792 268.327 38.7525 266.321 40.8992C264.314 43.0458 263.311 45.7992 263.311 49.1592V67.6392ZM289.426 68.6192C285.88 68.6192 283.033 67.6858 280.886 65.8192C278.786 63.9525 277.736 61.4792 277.736 58.3992C277.736 55.8325 278.32 53.7792 279.486 52.2392C280.7 50.6525 282.356 49.4392 284.456 48.5992C286.603 47.7125 289.333 46.9658 292.646 46.3592C294.933 45.9392 296.66 45.5658 297.826 45.2392C298.993 44.8658 299.926 44.3758 300.626 43.7692C301.326 43.1158 301.676 42.2292 301.676 41.1092C301.676 37.9358 299.413 36.3492 294.886 36.3492C291.853 36.3492 289.73 36.8625 288.516 37.8892C287.303 38.9158 286.603 40.6425 286.416 43.0692H279.416C279.603 39.3825 280.98 36.4192 283.546 34.1792C286.113 31.9392 289.986 30.8192 295.166 30.8192C299.18 30.8192 302.376 31.7992 304.756 33.7592C307.183 35.6725 308.396 38.7992 308.396 43.1392V59.5192C308.396 60.8725 308.513 61.8758 308.746 62.5292C308.98 63.1358 309.423 63.4392 310.076 63.4392L310.916 63.3692V67.5692C309.75 67.8492 308.583 67.9892 307.416 67.9892C305.643 67.9892 304.29 67.5925 303.356 66.7992C302.47 65.9592 301.933 64.5592 301.746 62.5992H301.606C300.44 64.5125 298.83 66.0058 296.776 67.0792C294.723 68.1058 292.273 68.6192 289.426 68.6192ZM284.876 57.9092C284.876 61.3625 286.906 63.0892 290.966 63.0892C294.186 63.0892 296.776 62.2958 298.736 60.7092C300.696 59.0758 301.676 56.7425 301.676 53.7092V48.5992C301.163 49.0658 300.253 49.5092 298.946 49.9292C297.686 50.3025 295.983 50.7225 293.836 51.1892C290.616 51.8425 288.306 52.6825 286.906 53.7092C285.553 54.6892 284.876 56.0892 284.876 57.9092ZM330.612 68.6192C327.579 68.6192 324.849 67.8725 322.422 66.3792C319.995 64.8392 318.082 62.6458 316.682 59.7992C315.282 56.9525 314.582 53.6158 314.582 49.7892C314.582 45.9625 315.282 42.6258 316.682 39.7792C318.082 36.9325 319.995 34.7392 322.422 33.1992C324.849 31.6592 327.579 30.8892 330.612 30.8892C333.225 30.8892 335.419 31.4025 337.192 32.4292C339.012 33.4092 340.482 34.6925 341.602 36.2792H341.742V17.5892H348.602V67.6392H341.742V63.4392H341.602C340.435 64.9325 338.942 66.1692 337.122 67.1492C335.349 68.1292 333.179 68.6192 330.612 68.6192ZM321.722 49.7892C321.722 53.5225 322.585 56.6492 324.312 59.1692C326.039 61.6892 328.512 62.9492 331.732 62.9492C334.812 62.9492 337.239 61.7825 339.012 59.4492C340.785 57.0692 341.672 53.8492 341.672 49.7892C341.672 45.7292 340.785 42.5325 339.012 40.1992C337.239 37.8192 334.812 36.6292 331.732 36.6292C328.512 36.6292 326.039 37.8892 324.312 40.4092C322.585 42.9292 321.722 46.0558 321.722 49.7892ZM372.144 68.6892C368.457 68.6892 365.284 67.8725 362.624 66.2392C359.964 64.6058 357.934 62.3658 356.534 59.5192C355.181 56.6725 354.504 53.4058 354.504 49.7192C354.504 45.9858 355.204 42.6958 356.604 39.8492C358.051 37.0025 360.104 34.7858 362.764 33.1992C365.424 31.6125 368.551 30.8192 372.144 30.8192C377.511 30.8192 381.664 32.4525 384.604 35.7192C387.591 38.9858 389.084 43.4192 389.084 49.0192C389.084 50.3725 389.061 51.2358 389.014 51.6092H361.574C361.667 54.8292 362.624 57.5592 364.444 59.7992C366.311 61.9925 368.924 63.0892 372.284 63.0892C375.084 63.0892 377.231 62.4125 378.724 61.0592C380.264 59.7058 381.244 58.2358 381.664 56.6492H388.664C387.637 60.2892 385.747 63.2058 382.994 65.3992C380.241 67.5925 376.624 68.6892 372.144 68.6892ZM381.944 46.2192C381.944 43.3725 381.011 41.0392 379.144 39.2192C377.324 37.3525 374.921 36.4192 371.934 36.4192C369.041 36.4192 366.637 37.3292 364.724 39.1492C362.811 40.9225 361.761 43.2792 361.574 46.2192H381.944ZM401.739 67.6392H394.879V31.9392H401.739V38.7292H401.879C404.025 33.6425 407.222 31.0992 411.469 31.0992C412.635 31.0992 413.732 31.1692 414.759 31.3092V37.8892C413.919 37.7492 413.149 37.6792 412.449 37.6792C409.322 37.6792 406.755 38.7525 404.749 40.8992C402.742 43.0458 401.739 45.7992 401.739 49.1592V67.6392Z" fill="black"/>
</svg>
