<svg width="98" height="85" viewBox="0 0 98 85" fill="none" xmlns="http://www.w3.org/2000/svg">
<path d="M74.9 8.92561C68.6726 4.07554 61.4016 1.2039 53.9429 0.306516C41.4337 -1.20026 28.3861 2.84842 18.7862 12.4484C6.93233 24.3022 3.5473 41.4194 8.62693 56.2826L17.1333 45.7811C16.1858 36.5693 19.2411 27.0194 26.2992 19.9614C31.6585 14.6021 38.4494 11.551 45.4448 10.808C49.6939 10.3573 54.0139 10.7538 58.1335 12.0101L0.00366211 83.822L74.9 8.92561Z" fill="#3DFF6C"/>
<path d="M97.6728 1.17886L22.7764 76.0752C29.0039 80.9253 36.2748 83.7969 43.7336 84.6943C56.2427 86.2011 69.2903 82.1524 78.8903 72.5525C90.7441 60.6986 94.1291 43.5815 89.0495 28.7182L80.5431 39.2197C81.4906 48.4315 78.4353 57.9814 71.3773 65.0394C66.018 70.3987 59.227 73.4498 52.2316 74.1928C47.9826 74.6436 43.6626 74.247 39.543 72.9907L97.6728 1.17886Z" fill="#3DFF6C"/>
</svg>
